<svg xmlns="http://www.w3.org/2000/svg" xmlns:xlink="http://www.w3.org/1999/xlink" width="500" zoomAndPan="magnify" viewBox="0 0 375 374.999991" height="500" preserveAspectRatio="xMidYMid meet" version="1.0"><path fill="#ffffff" d="M 157.9375 157.9375 L 157.9375 296.8125 L 245.59375 296.8125 L 245.59375 267.25 C 245.59375 261.292969 247.714844 256.191406 251.953125 251.953125 C 256.191406 247.714844 261.292969 245.59375 267.25 245.59375 L 296.8125 245.59375 L 296.8125 157.9375 Z M 227.375 227.375 Z M 118.0625 293.375 L 118.0625 161.375 C 118.0625 149.3125 122.246094 139.078125 130.609375 130.671875 C 138.972656 122.265625 149.230469 118.0625 161.375 118.0625 L 293.375 118.0625 C 305.519531 118.0625 315.777344 122.246094 324.140625 130.609375 C 332.503906 138.972656 336.6875 149.230469 336.6875 161.375 L 336.6875 246.28125 C 336.6875 252.066406 335.597656 257.578125 333.421875 262.824219 C 331.246094 268.066406 328.09375 272.75 323.96875 276.875 L 276.875 323.96875 C 272.75 328.09375 268.066406 331.246094 262.824219 333.421875 C 257.578125 335.597656 252.066406 336.6875 246.28125 336.6875 L 161.375 336.6875 C 149.230469 336.6875 138.972656 332.503906 130.609375 324.140625 C 122.246094 315.777344 118.0625 305.519531 118.0625 293.375 Z M 39 111.875 C 36.9375 99.957031 39.285156 89.128906 46.046875 79.390625 C 52.808594 69.652344 62.144531 63.75 74.0625 61.6875 L 204 39 C 215.917969 36.9375 226.859375 39 236.828125 45.1875 C 246.796875 51.375 252.46875 60.3125 253.84375 72 L 254.53125 77.15625 C 255.21875 83.34375 253.902344 88.328125 250.578125 92.109375 C 247.253906 95.890625 243.1875 98.238281 238.375 99.15625 C 233.5625 100.074219 228.808594 99.328125 224.109375 96.921875 C 219.410156 94.515625 216.488281 90.21875 215.34375 84.03125 L 214.3125 77.5 L 77.5 101.5625 L 96.0625 206.75 C 96.980469 212.019531 95.949219 216.890625 92.96875 221.359375 C 89.988281 225.828125 85.808594 228.636719 80.421875 229.78125 C 75.035156 230.925781 70.050781 229.953125 65.46875 226.859375 C 60.886719 223.765625 58.019531 219.355469 56.875 213.625 Z M 39 111.875 " fill-opacity="1" fill-rule="nonzero"/></svg>