<svg xmlns="http://www.w3.org/2000/svg" xmlns:xlink="http://www.w3.org/1999/xlink" width="500" zoomAndPan="magnify" viewBox="0 0 375 374.999991" height="500" preserveAspectRatio="xMidYMid meet" version="1.0"><path fill="#ffffff" d="M 118.0625 293.375 L 118.0625 161.375 C 118.0625 149.230469 122.246094 138.972656 130.609375 130.609375 C 138.972656 122.246094 149.230469 118.0625 161.375 118.0625 L 293.375 118.0625 C 305.519531 118.0625 315.777344 122.246094 324.140625 130.609375 C 332.503906 138.972656 336.6875 149.230469 336.6875 161.375 L 336.6875 246.28125 C 336.6875 252.011719 335.597656 257.511719 333.421875 262.78125 C 331.246094 268.050781 328.09375 272.75 323.96875 276.875 L 276.875 323.96875 C 272.75 328.09375 268.050781 331.246094 262.78125 333.421875 C 257.511719 335.597656 252.011719 336.6875 246.28125 336.6875 L 161.375 336.6875 C 149.230469 336.6875 138.972656 332.503906 130.609375 324.140625 C 122.246094 315.777344 118.0625 305.519531 118.0625 293.375 Z M 39 111.875 C 36.9375 99.957031 39.285156 89.128906 46.046875 79.390625 C 52.808594 69.652344 62.144531 63.75 74.0625 61.6875 L 204 39 C 215.917969 36.9375 226.746094 39.285156 236.484375 46.046875 C 246.222656 52.808594 252.125 62.144531 254.1875 74.0625 L 256.9375 90.5625 L 161.375 90.5625 C 141.667969 90.5625 124.9375 97.4375 111.1875 111.1875 C 97.4375 124.9375 90.5625 141.667969 90.5625 161.375 L 90.5625 275.15625 C 83.230469 272.636719 76.925781 268.453125 71.65625 262.609375 C 66.386719 256.765625 63.0625 249.832031 61.6875 241.8125 Z M 296.8125 245.59375 L 267.25 245.59375 C 261.292969 245.59375 256.191406 247.714844 251.953125 251.953125 C 247.714844 256.191406 245.59375 261.292969 245.59375 267.25 L 245.59375 296.8125 Z M 296.8125 245.59375 " fill-opacity="1" fill-rule="nonzero"/></svg>