<svg xmlns="http://www.w3.org/2000/svg" xmlns:xlink="http://www.w3.org/1999/xlink" width="500" zoomAndPan="magnify" viewBox="0 0 375 374.999991" height="500" preserveAspectRatio="xMidYMid meet" version="1.0"><path fill="#ffffff" d="M 175.261719 228.773438 L 227.914062 194.609375 C 230.53125 192.964844 231.839844 190.589844 231.839844 187.488281 C 231.839844 184.390625 230.53125 182.023438 227.914062 180.390625 L 175.261719 146.226562 C 172.257812 144.425781 169.273438 144.324219 166.304688 145.925781 C 163.335938 147.527344 161.851562 150.109375 161.851562 153.667969 L 161.851562 221.332031 C 161.851562 224.890625 163.335938 227.472656 166.304688 229.074219 C 169.273438 230.675781 172.257812 230.574219 175.261719 228.773438 Z M 187.585938 325.097656 C 168.691406 325.097656 150.867188 321.527344 134.121094 314.390625 C 117.375 307.25 102.734375 297.425781 90.199219 284.917969 C 77.667969 272.410156 67.816406 257.808594 60.648438 241.117188 C 53.484375 224.425781 49.902344 206.632812 49.902344 187.738281 C 49.902344 180.566406 50.382812 173.542969 51.34375 166.667969 C 52.308594 159.792969 53.972656 152.972656 56.335938 146.210938 C 57.867188 141.960938 60.703125 138.964844 64.847656 137.226562 C 68.988281 135.484375 73.292969 135.789062 77.765625 138.128906 C 82.121094 140.640625 85.074219 144.203125 86.628906 148.820312 C 88.179688 153.4375 88.433594 158.046875 87.390625 162.65625 C 86.242188 166.96875 85.457031 171.179688 85.039062 175.285156 C 84.621094 179.390625 84.414062 183.539062 84.414062 187.734375 C 84.414062 216.195312 94.464844 240.449219 114.574219 260.503906 C 134.683594 280.558594 158.992188 290.585938 187.5 290.585938 C 216.007812 290.585938 240.316406 280.535156 260.425781 260.425781 C 280.535156 240.316406 290.585938 216.023438 290.585938 187.535156 C 290.585938 159.050781 280.582031 134.742188 260.578125 114.609375 C 240.570312 94.480469 216.34375 84.414062 187.894531 84.414062 C 183.394531 84.414062 178.863281 84.703125 174.296875 85.28125 C 169.730469 85.863281 165.195312 86.730469 160.6875 87.890625 C 155.945312 89.152344 151.253906 88.960938 146.605469 87.308594 C 141.957031 85.664062 138.515625 82.601562 136.28125 78.128906 C 134.179688 73.632812 134.085938 69.277344 135.996094 65.058594 C 137.90625 60.835938 141.09375 58.011719 145.554688 56.585938 C 152.679688 54.660156 159.6875 53.0625 166.582031 51.796875 C 173.472656 50.53125 180.636719 49.902344 188.078125 49.902344 C 207.09375 49.902344 224.875 53.480469 241.414062 60.644531 C 257.953125 67.804688 272.496094 77.671875 285.042969 90.246094 C 297.589844 102.820312 307.402344 117.441406 314.480469 134.109375 C 321.558594 150.773438 325.097656 168.582031 325.097656 187.53125 C 325.097656 206.480469 321.519531 224.273438 314.363281 240.910156 C 307.207031 257.542969 297.351562 272.148438 284.800781 284.71875 C 272.246094 297.289062 257.640625 307.160156 240.984375 314.335938 C 224.324219 321.511719 206.523438 325.097656 187.585938 325.097656 Z M 100.089844 126.539062 C 92.769531 126.539062 86.578125 123.960938 81.515625 118.804688 C 76.453125 113.644531 73.917969 107.40625 73.917969 100.089844 C 73.917969 92.769531 76.480469 86.578125 81.601562 81.515625 C 86.722656 76.453125 92.945312 73.917969 100.261719 73.917969 C 107.582031 73.917969 113.789062 76.480469 118.890625 81.601562 C 123.992188 86.722656 126.539062 92.945312 126.539062 100.261719 C 126.539062 107.582031 123.960938 113.789062 118.804688 118.890625 C 113.644531 123.992188 107.40625 126.539062 100.089844 126.539062 Z M 187.5 187.5 Z M 187.5 187.5 " fill-opacity="1" fill-rule="nonzero"/></svg>