<svg xmlns="http://www.w3.org/2000/svg" xmlns:xlink="http://www.w3.org/1999/xlink" width="500" zoomAndPan="magnify" viewBox="0 0 375 374.999991" height="500" preserveAspectRatio="xMidYMid meet" version="1.0"><path fill="#ffffff" d="M 187.5 222.65625 L 130.46875 279.6875 C 125.261719 284.894531 119.402344 287.433594 112.890625 287.304688 C 106.378906 287.175781 100.652344 284.503906 95.703125 279.296875 C 90.496094 274.089844 87.890625 268.230469 87.890625 261.71875 C 87.890625 255.207031 90.496094 249.347656 95.703125 244.140625 L 152.34375 187.5 L 95.3125 130.078125 C 90.105469 124.871094 87.566406 119.011719 87.695312 112.5 C 87.824219 105.988281 90.496094 100.128906 95.703125 94.921875 C 100.652344 89.714844 106.445312 87.109375 113.085938 87.109375 C 119.726562 87.109375 125.652344 89.714844 130.859375 94.921875 L 187.5 151.953125 L 244.53125 94.921875 C 249.738281 89.714844 255.664062 87.109375 262.304688 87.109375 C 268.945312 87.109375 274.738281 89.714844 279.6875 94.921875 C 284.894531 100.128906 287.5 105.988281 287.5 112.5 C 287.5 119.011719 284.894531 124.871094 279.6875 130.078125 L 222.65625 187.5 L 279.6875 244.53125 C 284.894531 249.738281 287.5 255.535156 287.5 261.914062 C 287.5 268.292969 284.894531 274.089844 279.6875 279.296875 C 274.738281 284.503906 268.945312 287.109375 262.304688 287.109375 C 255.664062 287.109375 249.738281 284.503906 244.53125 279.296875 Z M 187.5 222.65625 " fill-opacity="1" fill-rule="nonzero"/></svg>