<svg xmlns="http://www.w3.org/2000/svg" xmlns:xlink="http://www.w3.org/1999/xlink" width="500" zoomAndPan="magnify" viewBox="0 0 375 374.999991" height="500" preserveAspectRatio="xMidYMid meet" version="1.0"><path fill="#ffffff" d="M 187.347656 236.917969 L 106.933594 317.332031 C 99.589844 324.675781 91.328125 328.253906 82.148438 328.070312 C 72.96875 327.886719 64.890625 324.125 57.914062 316.78125 C 50.570312 309.4375 46.898438 301.175781 46.898438 291.996094 C 46.898438 282.816406 50.570312 274.554688 57.914062 267.210938 L 137.777344 187.347656 L 57.363281 106.382812 C 50.019531 99.039062 46.4375 90.777344 46.621094 81.597656 C 46.804688 72.417969 50.570312 64.15625 57.914062 56.8125 C 64.890625 49.46875 73.058594 45.796875 82.421875 45.796875 C 91.785156 45.796875 100.140625 49.46875 107.484375 56.8125 L 187.347656 137.226562 L 267.761719 56.8125 C 275.105469 49.46875 283.457031 45.796875 292.820312 45.796875 C 302.183594 45.796875 310.355469 49.46875 317.332031 56.8125 C 324.675781 64.15625 328.347656 72.417969 328.347656 81.597656 C 328.347656 90.777344 324.675781 99.039062 317.332031 106.382812 L 236.917969 187.347656 L 317.332031 267.761719 C 324.675781 275.105469 328.347656 283.273438 328.347656 292.269531 C 328.347656 301.265625 324.675781 309.4375 317.332031 316.78125 C 310.355469 324.125 302.183594 327.796875 292.820312 327.796875 C 283.457031 327.796875 275.105469 324.125 267.761719 316.78125 Z M 187.347656 236.917969 " fill-opacity="1" fill-rule="nonzero"/></svg>