<svg xmlns="http://www.w3.org/2000/svg" xmlns:xlink="http://www.w3.org/1999/xlink" width="500" zoomAndPan="magnify" viewBox="0 0 375 374.999991" height="500" preserveAspectRatio="xMidYMid meet" version="1.0"><path fill="#ffffff" d="M 187.71875 231.3125 L 117 302.03125 C 110.542969 308.488281 103.277344 311.636719 95.203125 311.476562 C 87.128906 311.316406 80.027344 308.003906 73.890625 301.546875 C 67.433594 295.089844 64.203125 287.824219 64.203125 279.75 C 64.203125 271.675781 67.433594 264.410156 73.890625 257.953125 L 144.125 187.71875 L 73.40625 116.515625 C 66.949219 110.058594 63.800781 102.792969 63.960938 94.71875 C 64.121094 86.644531 67.433594 79.378906 73.890625 72.921875 C 80.027344 66.464844 87.210938 63.234375 95.445312 63.234375 C 103.679688 63.234375 111.027344 66.464844 117.484375 72.921875 L 187.71875 143.640625 L 258.4375 72.921875 C 264.894531 66.464844 272.242188 63.234375 280.476562 63.234375 C 288.710938 63.234375 295.894531 66.464844 302.03125 72.921875 C 308.488281 79.378906 311.71875 86.644531 311.71875 94.71875 C 311.71875 102.792969 308.488281 110.058594 302.03125 116.515625 L 231.3125 187.71875 L 302.03125 258.4375 C 308.488281 264.894531 311.71875 272.082031 311.71875 279.992188 C 311.71875 287.902344 308.488281 295.089844 302.03125 301.546875 C 295.894531 308.003906 288.710938 311.234375 280.476562 311.234375 C 272.242188 311.234375 264.894531 308.003906 258.4375 301.546875 Z M 187.71875 231.3125 " fill-opacity="1" fill-rule="nonzero"/></svg>