<svg xmlns="http://www.w3.org/2000/svg" xmlns:xlink="http://www.w3.org/1999/xlink" width="500" zoomAndPan="magnify" viewBox="0 0 375 374.999991" height="500" preserveAspectRatio="xMidYMid meet" version="1.0"><path fill="#ffffff" d="M 187.570312 322.132812 C 149.917969 322.132812 118.050781 309.101562 91.964844 283.046875 C 65.878906 256.988281 52.835938 225.132812 52.835938 187.484375 C 52.835938 158.835938 60.585938 133.125 76.089844 110.347656 C 91.59375 87.566406 113.074219 71.246094 140.539062 61.375 C 147.304688 58.980469 153.472656 57.992188 159.039062 58.414062 C 164.609375 58.835938 169.230469 60.652344 172.910156 63.863281 C 176.589844 67.074219 179.21875 71.363281 180.800781 76.730469 C 182.382812 82.097656 182.476562 88.800781 181.085938 96.84375 C 180.835938 99.765625 180.589844 102.519531 180.351562 105.105469 C 180.109375 107.691406 179.992188 110.316406 179.992188 112.984375 C 179.992188 135.613281 188.148438 154.964844 204.46875 171.039062 C 220.785156 187.113281 240.375 195.148438 263.234375 195.148438 C 265.925781 195.148438 268.558594 195.117188 271.125 195.054688 C 273.695312 194.992188 276.261719 194.835938 278.828125 194.585938 C 287.234375 193.195312 294.183594 193.414062 299.675781 195.238281 C 305.167969 197.066406 309.371094 199.984375 312.289062 204 C 315.3125 208.015625 316.933594 212.796875 317.144531 218.339844 C 317.355469 223.882812 316.171875 229.949219 313.59375 236.53125 C 303.414062 261.550781 286.828125 282.074219 263.828125 298.097656 C 240.828125 314.121094 215.40625 322.132812 187.570312 322.132812 Z M 187.570312 281.460938 C 204.085938 281.460938 219.589844 277.355469 234.089844 269.144531 C 248.585938 260.933594 260 249.734375 268.328125 235.546875 C 267.003906 235.488281 265.46875 235.464844 263.726562 235.46875 C 261.980469 235.472656 260.449219 235.445312 259.125 235.390625 C 226.5 234.417969 198.703125 222.632812 175.738281 200.042969 C 152.777344 177.453125 140.753906 149.78125 139.664062 117.023438 C 139.605469 114.730469 139.597656 112.699219 139.628906 110.925781 C 139.664062 109.152344 139.769531 107.722656 139.953125 106.640625 C 125.582031 115.023438 114.265625 126.421875 105.996094 140.828125 C 97.726562 155.234375 93.59375 170.785156 93.59375 187.484375 C 93.59375 213.441406 102.765625 235.59375 121.113281 253.941406 C 139.460938 272.285156 161.613281 281.460938 187.570312 281.460938 Z M 181.046875 194.007812 Z M 181.046875 194.007812 " fill-opacity="1" fill-rule="nonzero"/></svg>