<svg xmlns="http://www.w3.org/2000/svg" xmlns:xlink="http://www.w3.org/1999/xlink" width="500" zoomAndPan="magnify" viewBox="0 0 375 374.999991" height="500" preserveAspectRatio="xMidYMid meet" version="1.0"><path fill="#ffffff" d="M 136.371094 305.59375 C 129.648438 305.59375 123.914062 303.316406 119.179688 298.753906 C 114.441406 294.191406 112.074219 288.574219 112.074219 281.898438 L 112.074219 117.640625 L 67.175781 117.640625 C 60.617188 117.640625 54.976562 115.277344 50.246094 110.558594 C 45.519531 105.839844 43.15625 100.109375 43.15625 93.363281 C 43.15625 86.785156 45.519531 81.148438 50.246094 76.449219 C 54.976562 71.753906 60.617188 69.40625 67.175781 69.40625 L 205.0625 69.40625 C 211.734375 69.40625 217.40625 71.773438 222.078125 76.515625 C 226.75 81.253906 229.085938 86.945312 229.085938 93.585938 C 229.085938 100.222656 226.75 105.890625 222.078125 110.589844 C 217.40625 115.289062 211.734375 117.640625 205.0625 117.640625 L 159.980469 117.640625 L 159.980469 281.574219 C 159.980469 288.132812 157.703125 293.773438 153.152344 298.503906 C 148.601562 303.230469 143.007812 305.59375 136.371094 305.59375 Z M 266.976562 305.59375 C 260.253906 305.59375 254.523438 303.316406 249.789062 298.753906 C 245.050781 294.191406 242.679688 288.574219 242.679688 281.902344 L 242.679688 194.007812 L 225.777344 194.007812 C 219.011719 194.007812 213.261719 191.652344 208.527344 186.9375 C 203.789062 182.226562 201.421875 176.507812 201.421875 169.777344 C 201.421875 163.046875 203.734375 157.339844 208.363281 152.652344 C 212.988281 147.96875 218.683594 145.628906 225.449219 145.628906 L 308.007812 145.628906 C 314.609375 145.628906 320.234375 147.953125 324.878906 152.605469 C 329.523438 157.253906 331.84375 162.894531 331.84375 169.535156 C 331.84375 176.175781 329.523438 181.914062 324.878906 186.75 C 320.234375 191.589844 314.609375 194.007812 308.007812 194.007812 L 290.585938 194.007812 L 290.585938 281.574219 C 290.585938 288.132812 288.3125 293.773438 283.757812 298.503906 C 279.207031 303.230469 273.613281 305.59375 266.976562 305.59375 Z M 266.976562 305.59375 " fill-opacity="1" fill-rule="nonzero"/></svg>