<svg xmlns="http://www.w3.org/2000/svg" xmlns:xlink="http://www.w3.org/1999/xlink" width="500" zoomAndPan="magnify" viewBox="0 0 375 374.999991" height="500" preserveAspectRatio="xMidYMid meet" version="1.0"><defs><g/><clipPath id="2432b7aea5"><path d="M 43.433594 42.941406 L 331.566406 42.941406 L 331.566406 331.070312 L 43.433594 331.070312 Z M 43.433594 42.941406 " clip-rule="nonzero"/></clipPath><clipPath id="3ce1dbc7d1"><path d="M 187.5 42.941406 C 107.933594 42.941406 43.433594 107.441406 43.433594 187.003906 C 43.433594 266.570312 107.933594 331.070312 187.5 331.070312 C 267.066406 331.070312 331.566406 266.570312 331.566406 187.003906 C 331.566406 107.441406 267.066406 42.941406 187.5 42.941406 Z M 187.5 42.941406 " clip-rule="nonzero"/></clipPath><clipPath id="ae88a6693f"><path d="M 0.433594 0.941406 L 288.566406 0.941406 L 288.566406 289.070312 L 0.433594 289.070312 Z M 0.433594 0.941406 " clip-rule="nonzero"/></clipPath><clipPath id="30d7424c7d"><path d="M 144.5 0.941406 C 64.933594 0.941406 0.433594 65.441406 0.433594 145.003906 C 0.433594 224.570312 64.933594 289.070312 144.5 289.070312 C 224.066406 289.070312 288.566406 224.570312 288.566406 145.003906 C 288.566406 65.441406 224.066406 0.941406 144.5 0.941406 Z M 144.5 0.941406 " clip-rule="nonzero"/></clipPath><clipPath id="8d19067eec"><rect x="0" width="289" y="0" height="290"/></clipPath><clipPath id="365ab95fba"><rect x="0" width="98" y="0" height="295"/></clipPath></defs><g clip-path="url(#2432b7aea5)"><g clip-path="url(#3ce1dbc7d1)"><g transform="matrix(1, 0, 0, 1, 43, 42)"><g clip-path="url(#8d19067eec)"><g clip-path="url(#ae88a6693f)"><g clip-path="url(#30d7424c7d)"><path fill="#ffffff" d="M 0.433594 0.941406 L 288.566406 0.941406 L 288.566406 289.070312 L 0.433594 289.070312 Z M 0.433594 0.941406 " fill-opacity="1" fill-rule="nonzero"/></g></g></g></g></g></g><g transform="matrix(1, 0, 0, 1, 139, 39)"><g clip-path="url(#365ab95fba)"><g fill="#ff0000" fill-opacity="1"><g transform="translate(1.177347, 235.061679)"><g><path d="M 19.441406 -165.898438 C 19.441406 -173.417969 22.050781 -179.765625 27.265625 -184.933594 C 32.472656 -190.097656 38.832031 -192.675781 46.339844 -192.675781 C 53.691406 -192.675781 59.953125 -190.09375 65.121094 -184.925781 C 70.289062 -179.753906 72.875 -173.414062 72.875 -165.898438 C 72.875 -158.546875 70.289062 -152.289062 65.121094 -147.117188 C 59.953125 -141.949219 53.691406 -139.367188 46.339844 -139.367188 C 38.839844 -139.367188 32.484375 -141.921875 27.277344 -147.035156 C 22.054688 -152.167969 19.441406 -158.457031 19.441406 -165.898438 Z M 26.292969 -165.898438 C 26.292969 -160.371094 28.21875 -155.710938 32.078125 -151.921875 C 35.953125 -148.117188 40.707031 -146.214844 46.339844 -146.214844 C 51.800781 -146.214844 56.445312 -148.132812 60.277344 -151.960938 C 64.109375 -155.792969 66.023438 -160.441406 66.023438 -165.898438 C 66.023438 -171.523438 64.109375 -176.25 60.277344 -180.078125 C 56.445312 -183.910156 51.800781 -185.828125 46.339844 -185.828125 C 40.710938 -185.828125 35.960938 -183.90625 32.089844 -180.070312 C 28.222656 -176.238281 26.292969 -171.515625 26.292969 -165.898438 Z M 69.9375 -18.140625 L 91.847656 -18.140625 L 91.847656 3.425781 L 5.089844 3.425781 L 5.089844 -18.140625 L 26.878906 -18.140625 L 26.878906 -14.71875 L 23.453125 -14.71875 L 23.453125 -114.574219 L 26.878906 -114.574219 L 26.878906 -111.148438 L 5.089844 -111.148438 L 5.089844 -132.714844 L 73.359375 -132.714844 L 73.359375 -14.71875 L 69.9375 -14.71875 Z M 66.511719 -11.292969 L 66.511719 -129.289062 L 69.9375 -129.289062 L 69.9375 -125.863281 L 8.515625 -125.863281 L 8.515625 -129.289062 L 11.9375 -129.289062 L 11.9375 -114.574219 L 8.515625 -114.574219 L 8.515625 -118 L 30.304688 -118 L 30.304688 -11.292969 L 8.515625 -11.292969 L 8.515625 -14.71875 L 11.9375 -14.71875 L 11.9375 0 L 8.515625 0 L 8.515625 -3.425781 L 88.421875 -3.425781 L 88.421875 0 L 85 0 L 85 -14.71875 L 88.421875 -14.71875 L 88.421875 -11.292969 Z M 66.511719 -11.292969 "/></g></g></g><g fill="#ff0000" fill-opacity="1"><g transform="translate(1.177347, 235.061679)"><g><path d="M 22.859375 -165.90625 C 22.859375 -172.46875 25.128906 -178 29.671875 -182.5 C 34.210938 -187 39.769531 -189.25 46.34375 -189.25 C 52.75 -189.25 58.203125 -187 62.703125 -182.5 C 67.203125 -178 69.453125 -172.46875 69.453125 -165.90625 C 69.453125 -159.5 67.203125 -154.046875 62.703125 -149.546875 C 58.203125 -145.046875 52.75 -142.796875 46.34375 -142.796875 C 39.769531 -142.796875 34.210938 -145.023438 29.671875 -149.484375 C 25.128906 -153.941406 22.859375 -159.414062 22.859375 -165.90625 Z M 69.9375 -14.71875 L 88.421875 -14.71875 L 88.421875 0 L 8.515625 0 L 8.515625 -14.71875 L 26.875 -14.71875 L 26.875 -114.578125 L 8.515625 -114.578125 L 8.515625 -129.296875 L 69.9375 -129.296875 Z M 69.9375 -14.71875 "/></g></g></g></g></g></svg>