<svg xmlns="http://www.w3.org/2000/svg" xmlns:xlink="http://www.w3.org/1999/xlink" width="500" zoomAndPan="magnify" viewBox="0 0 375 374.999991" height="500" preserveAspectRatio="xMidYMid meet" version="1.0"><path fill="#ffffff" d="M 42.945312 310.492188 L 42.945312 151.148438 C 42.945312 144.878906 44.195312 139.101562 46.695312 133.816406 C 49.195312 128.535156 53.015625 124.027344 58.160156 120.292969 L 164.25 39.984375 C 170.640625 35.195312 178.367188 32.800781 187.429688 32.800781 C 196.492188 32.800781 204.402344 35.195312 211.164062 39.984375 L 317.253906 120.292969 C 322.117188 124.027344 325.867188 128.535156 328.511719 133.816406 C 331.152344 139.101562 332.472656 144.878906 332.472656 151.148438 L 332.472656 310.492188 C 332.472656 321.128906 328.652344 330.199219 321.007812 337.699219 C 313.363281 345.203125 304.222656 348.957031 293.585938 348.957031 L 242.867188 348.957031 C 237.019531 348.957031 232.316406 347.105469 228.761719 343.40625 C 225.203125 339.710938 223.421875 335.078125 223.421875 329.511719 L 223.421875 237.792969 C 223.421875 232.511719 221.574219 228.019531 217.878906 224.320312 C 214.179688 220.621094 209.6875 218.773438 204.402344 218.773438 L 171.011719 218.773438 C 165.449219 218.773438 160.816406 220.621094 157.121094 224.320312 C 153.417969 228.019531 151.570312 232.511719 151.570312 237.792969 L 151.570312 329.511719 C 151.570312 335.078125 149.792969 339.710938 146.234375 343.40625 C 142.675781 347.105469 138.113281 348.957031 132.550781 348.957031 L 81.40625 348.957031 C 70.769531 348.957031 61.699219 345.203125 54.199219 337.699219 C 46.695312 330.199219 42.945312 321.128906 42.945312 310.492188 Z M 42.945312 310.492188 " fill-opacity="1" fill-rule="nonzero"/></svg>