<svg xmlns="http://www.w3.org/2000/svg" xmlns:xlink="http://www.w3.org/1999/xlink" width="500" zoomAndPan="magnify" viewBox="0 0 375 374.999991" height="500" preserveAspectRatio="xMidYMid meet" version="1.0"><path fill="#ffffff" d="M 81.246094 310.675781 L 135.003906 310.675781 L 135.003906 221.359375 C 135.003906 216.054688 136.882812 211.480469 140.640625 207.644531 C 144.398438 203.804688 148.871094 201.886719 154.054688 201.886719 L 220.9375 201.886719 C 226.242188 201.886719 230.8125 203.804688 234.652344 207.644531 C 238.488281 211.480469 240.40625 216.054688 240.40625 221.359375 L 240.40625 310.675781 L 293.742188 310.675781 L 293.742188 151.230469 L 187.496094 71.507812 L 81.246094 150.949219 Z M 42.726562 310.675781 L 42.726562 151.089844 C 42.726562 144.871094 43.992188 139.09375 46.523438 133.757812 C 49.054688 128.421875 52.867188 123.898438 57.964844 120.191406 L 164.214844 39.761719 C 170.613281 34.964844 178.351562 32.566406 187.425781 32.566406 C 196.503906 32.566406 204.425781 34.964844 211.199219 39.761719 L 317.449219 120.191406 C 322.394531 123.898438 326.171875 128.421875 328.78125 133.757812 C 331.386719 139.09375 332.6875 144.871094 332.6875 151.089844 L 332.6875 310.675781 C 332.6875 321.34375 328.894531 330.429688 321.304688 337.9375 C 313.714844 345.441406 304.527344 349.195312 293.742188 349.195312 L 225.59375 349.195312 C 220.011719 349.195312 215.441406 347.316406 211.882812 343.558594 C 208.324219 339.796875 206.542969 335.183594 206.542969 329.726562 L 206.542969 235.75 L 168.871094 235.75 L 168.871094 329.726562 C 168.871094 335.183594 167.050781 339.796875 163.410156 343.558594 C 159.769531 347.316406 155.097656 349.195312 149.398438 349.195312 L 81.246094 349.195312 C 70.578125 349.195312 61.492188 345.441406 53.984375 337.9375 C 46.476562 330.429688 42.726562 321.34375 42.726562 310.675781 Z M 187.496094 190.882812 Z M 187.496094 190.882812 " fill-opacity="1" fill-rule="nonzero"/></svg>