<svg xmlns="http://www.w3.org/2000/svg" xmlns:xlink="http://www.w3.org/1999/xlink" width="500" zoomAndPan="magnify" viewBox="0 0 375 374.999991" height="500" preserveAspectRatio="xMidYMid meet" version="1.0"><path fill="#ffffff" d="M 82.03125 331.25 C 71.433594 331.25 62.402344 327.519531 54.941406 320.058594 C 47.480469 312.597656 43.75 303.566406 43.75 292.96875 L 43.75 82.03125 C 43.75 71.433594 47.480469 62.402344 54.941406 54.941406 C 62.402344 47.480469 71.433594 43.75 82.03125 43.75 L 233.203125 43.75 C 238.207031 43.75 243.039062 44.660156 247.699219 46.484375 C 252.359375 48.308594 256.609375 51.140625 260.449219 54.980469 L 320.019531 114.550781 C 323.859375 118.390625 326.691406 122.640625 328.515625 127.300781 C 330.339844 131.960938 331.25 136.792969 331.25 141.796875 L 331.25 292.96875 C 331.25 303.566406 327.519531 312.597656 320.058594 320.058594 C 312.597656 327.519531 303.566406 331.25 292.96875 331.25 Z M 225.78125 82.03125 L 225.78125 130.078125 C 225.78125 135.363281 227.648438 139.875 231.386719 143.613281 C 235.125 147.351562 239.636719 149.21875 244.921875 149.21875 L 292.96875 149.21875 Z M 249.609375 273.4375 C 254.894531 273.4375 259.40625 271.578125 263.144531 267.855469 C 266.882812 264.132812 268.75 259.640625 268.75 254.378906 C 268.75 249.117188 266.882812 244.597656 263.144531 240.820312 C 259.40625 237.042969 254.894531 235.15625 249.609375 235.15625 L 125.390625 235.15625 C 120.105469 235.15625 115.59375 237.015625 111.855469 240.738281 C 108.117188 244.460938 106.25 248.953125 106.25 254.214844 C 106.25 259.476562 108.117188 263.996094 111.855469 267.773438 C 115.59375 271.550781 120.105469 273.4375 125.390625 273.4375 Z M 168.253906 144.53125 C 173.53125 144.53125 178.058594 142.671875 181.835938 138.949219 C 185.613281 135.226562 187.5 130.734375 187.5 125.472656 C 187.5 120.210938 185.632812 115.691406 181.902344 111.914062 C 178.171875 108.136719 173.664062 106.25 168.386719 106.25 L 130.183594 106.25 C 124.90625 106.25 120.378906 108.109375 116.601562 111.832031 C 112.824219 115.554688 110.9375 120.046875 110.9375 125.308594 C 110.9375 130.570312 112.804688 135.089844 116.535156 138.867188 C 120.265625 142.644531 124.773438 144.53125 130.050781 144.53125 Z M 249.609375 216.015625 C 254.894531 216.015625 259.40625 214.15625 263.144531 210.433594 C 266.882812 206.710938 268.75 202.21875 268.75 196.957031 C 268.75 191.695312 266.882812 187.175781 263.144531 183.398438 C 259.40625 179.621094 254.894531 177.734375 249.609375 177.734375 L 125.390625 177.734375 C 120.105469 177.734375 115.59375 179.59375 111.855469 183.316406 C 108.117188 187.039062 106.25 191.53125 106.25 196.792969 C 106.25 202.054688 108.117188 206.574219 111.855469 210.351562 C 115.59375 214.128906 120.105469 216.015625 125.390625 216.015625 Z M 249.609375 216.015625 " fill-opacity="1" fill-rule="nonzero"/></svg>