<svg xmlns="http://www.w3.org/2000/svg" xmlns:xlink="http://www.w3.org/1999/xlink" width="500" zoomAndPan="magnify" viewBox="0 0 375 374.999991" height="500" preserveAspectRatio="xMidYMid meet" version="1.0"><path fill="#ffffff" d="M 80.976562 308.789062 C 69.039062 308.789062 58.960938 304.683594 50.753906 296.472656 C 42.542969 288.261719 38.4375 278.1875 38.4375 266.25 L 38.4375 108.75 C 38.4375 96.8125 42.542969 86.738281 50.753906 78.527344 C 58.960938 70.316406 69.039062 66.210938 80.976562 66.210938 L 294.023438 66.210938 C 305.960938 66.210938 316.035156 70.316406 324.246094 78.527344 C 332.457031 86.738281 336.5625 96.8125 336.5625 108.75 L 336.5625 266.25 C 336.5625 278.1875 332.457031 288.261719 324.246094 296.472656 C 316.035156 304.683594 305.960938 308.789062 294.023438 308.789062 Z M 294.023438 146.015625 L 198.925781 208.066406 C 197.09375 209.121094 195.261719 209.941406 193.421875 210.527344 C 191.582031 211.113281 189.609375 211.40625 187.5 211.40625 C 185.390625 211.40625 183.417969 211.113281 181.578125 210.527344 C 179.738281 209.941406 177.90625 209.121094 176.074219 208.066406 L 80.976562 146.015625 L 80.976562 266.25 L 294.023438 266.25 Z M 187.5 178.007812 L 293.671875 108.75 L 81.328125 108.75 Z M 80.976562 146.015625 L 80.976562 150.761719 L 80.976562 124.085938 L 80.976562 124.511719 L 80.976562 108.75 L 80.976562 124.570312 L 80.976562 123.867188 L 80.976562 150.761719 L 80.976562 146.015625 L 80.976562 266.25 Z M 80.976562 146.015625 " fill-opacity="1" fill-rule="nonzero"/></svg>