<svg xmlns="http://www.w3.org/2000/svg" xmlns:xlink="http://www.w3.org/1999/xlink" width="500" zoomAndPan="magnify" viewBox="0 0 375 374.999991" height="500" preserveAspectRatio="xMidYMid meet" version="1.0"><path fill="#ffffff" d="M 80.976562 308.789062 C 69.023438 308.789062 58.945312 304.6875 50.742188 296.484375 C 42.539062 288.28125 38.4375 278.203125 38.4375 266.25 L 38.4375 108.75 C 38.4375 96.796875 42.539062 86.71875 50.742188 78.515625 C 58.945312 70.3125 69.023438 66.210938 80.976562 66.210938 L 294.023438 66.210938 C 305.976562 66.210938 316.054688 70.3125 324.257812 78.515625 C 332.460938 86.71875 336.5625 96.796875 336.5625 108.75 L 336.5625 266.25 C 336.5625 278.203125 332.460938 288.28125 324.257812 296.484375 C 316.054688 304.6875 305.976562 308.789062 294.023438 308.789062 Z M 187.5 211.40625 C 189.609375 211.40625 191.570312 211.113281 193.386719 210.527344 C 195.203125 209.941406 197.050781 209.121094 198.925781 208.066406 L 286.640625 150.761719 C 288.515625 149.589844 290.214844 147.859375 291.738281 145.574219 C 293.261719 143.289062 294.023438 140.683594 294.023438 137.753906 C 294.023438 132.011719 291.414062 127.46875 286.199219 124.128906 C 280.984375 120.789062 275.566406 120.9375 269.941406 124.570312 L 187.5 178.007812 L 105.058594 124.570312 C 99.902344 121.40625 94.597656 121.171875 89.148438 123.867188 C 83.699219 126.5625 80.976562 131.191406 80.976562 137.753906 C 80.976562 140.800781 81.765625 143.4375 83.347656 145.664062 C 84.929688 147.890625 86.601562 149.589844 88.359375 150.761719 L 176.074219 208.066406 C 177.949219 209.121094 179.792969 209.941406 181.609375 210.527344 C 183.425781 211.113281 185.390625 211.40625 187.5 211.40625 Z M 187.5 211.40625 " fill-opacity="1" fill-rule="nonzero"/></svg>