<svg xmlns="http://www.w3.org/2000/svg" xmlns:xlink="http://www.w3.org/1999/xlink" width="500" zoomAndPan="magnify" viewBox="0 0 375 374.999991" height="500" preserveAspectRatio="xMidYMid meet" version="1.0"><defs><clipPath id="1660a9c9b9"><path d="M 45.238281 210.402344 L 321.003906 210.402344 L 321.003906 273.792969 L 45.238281 273.792969 Z M 45.238281 210.402344 " clip-rule="nonzero"/></clipPath><clipPath id="ec57bedd89"><path d="M 0.238281 0.402344 L 276.003906 0.402344 L 276.003906 63.792969 L 0.238281 63.792969 Z M 0.238281 0.402344 " clip-rule="nonzero"/></clipPath><clipPath id="a07d172fe1"><rect x="0" width="277" y="0" height="64"/></clipPath><clipPath id="f47ae6cbb2"><path d="M 45.238281 227.855469 L 321.257812 227.855469 L 321.257812 305.078125 L 45.238281 305.078125 Z M 45.238281 227.855469 " clip-rule="nonzero"/></clipPath><clipPath id="0f346a8420"><path d="M 83.847656 227.855469 L 282.390625 227.855469 C 292.632812 227.855469 302.453125 231.921875 309.695312 239.164062 C 316.933594 246.40625 321.003906 256.226562 321.003906 266.46875 C 321.003906 276.707031 316.933594 286.527344 309.695312 293.769531 C 302.453125 301.011719 292.632812 305.078125 282.390625 305.078125 L 83.847656 305.078125 C 73.609375 305.078125 63.789062 301.011719 56.546875 293.769531 C 49.304688 286.527344 45.238281 276.707031 45.238281 266.46875 C 45.238281 256.226562 49.304688 246.40625 56.546875 239.164062 C 63.789062 231.921875 73.609375 227.855469 83.847656 227.855469 Z M 83.847656 227.855469 " clip-rule="nonzero"/></clipPath><clipPath id="9ced9a27f2"><path d="M 0.238281 0.855469 L 276 0.855469 L 276 78.078125 L 0.238281 78.078125 Z M 0.238281 0.855469 " clip-rule="nonzero"/></clipPath><clipPath id="c7f2c790fe"><path d="M 38.847656 0.855469 L 237.390625 0.855469 C 247.632812 0.855469 257.453125 4.921875 264.695312 12.164062 C 271.933594 19.40625 276.003906 29.226562 276.003906 39.46875 C 276.003906 49.707031 271.933594 59.527344 264.695312 66.769531 C 257.453125 74.011719 247.632812 78.078125 237.390625 78.078125 L 38.847656 78.078125 C 28.609375 78.078125 18.789062 74.011719 11.546875 66.769531 C 4.304688 59.527344 0.238281 49.707031 0.238281 39.46875 C 0.238281 29.226562 4.304688 19.40625 11.546875 12.164062 C 18.789062 4.921875 28.609375 0.855469 38.847656 0.855469 Z M 38.847656 0.855469 " clip-rule="nonzero"/></clipPath><clipPath id="1f7c586393"><rect x="0" width="277" y="0" height="79"/></clipPath><clipPath id="351675fcde"><path d="M 175.960938 121.058594 L 375 121.058594 L 375 212.464844 L 175.960938 212.464844 Z M 175.960938 121.058594 " clip-rule="nonzero"/></clipPath><clipPath id="f8e8525717"><path d="M 334.519531 121.058594 L 493.078125 121.058594 L 334.519531 212.464844 L 175.960938 212.464844 Z M 334.519531 121.058594 " clip-rule="nonzero"/></clipPath><clipPath id="8ba2af04cc"><path d="M 0.960938 0.0585938 L 200 0.0585938 L 200 91.464844 L 0.960938 91.464844 Z M 0.960938 0.0585938 " clip-rule="nonzero"/></clipPath><clipPath id="71292a6608"><path d="M 159.519531 0.0585938 L 318.078125 0.0585938 L 159.519531 91.464844 L 0.960938 91.464844 Z M 159.519531 0.0585938 " clip-rule="nonzero"/></clipPath><clipPath id="54ff70037b"><rect x="0" width="200" y="0" height="92"/></clipPath><clipPath id="21f3c06488"><path d="M 321.003906 77.855469 L 375 77.855469 L 375 296.839844 L 321.003906 296.839844 Z M 321.003906 77.855469 " clip-rule="nonzero"/></clipPath><clipPath id="c9112e9695"><path d="M 0.00390625 0.855469 L 54 0.855469 L 54 219.839844 L 0.00390625 219.839844 Z M 0.00390625 0.855469 " clip-rule="nonzero"/></clipPath><clipPath id="1162f00277"><rect x="0" width="54" y="0" height="220"/></clipPath><clipPath id="1badf4232a"><path d="M 0 123.585938 L 190.578125 123.585938 L 190.578125 212.464844 L 0 212.464844 Z M 0 123.585938 " clip-rule="nonzero"/></clipPath><clipPath id="661df7a36b"><path d="M 36.101562 123.585938 L -118.078125 123.585938 L 36.101562 212.464844 L 190.277344 212.464844 Z M 36.101562 123.585938 " clip-rule="nonzero"/></clipPath><clipPath id="299c194f84"><path d="M 0 0.585938 L 190.320312 0.585938 L 190.320312 89.464844 L 0 89.464844 Z M 0 0.585938 " clip-rule="nonzero"/></clipPath><clipPath id="c30752e6b1"><path d="M 36.101562 0.585938 L -118.078125 0.585938 L 36.101562 89.464844 L 190.277344 89.464844 Z M 36.101562 0.585938 " clip-rule="nonzero"/></clipPath><clipPath id="1f55fbc7c8"><rect x="0" width="191" y="0" height="90"/></clipPath><clipPath id="b1fc481fc4"><path d="M 0 69.921875 L 45.238281 69.921875 L 45.238281 296.839844 L 0 296.839844 Z M 0 69.921875 " clip-rule="nonzero"/></clipPath><clipPath id="1f99902f83"><path d="M 0 0.921875 L 45.238281 0.921875 L 45.238281 227.839844 L 0 227.839844 Z M 0 0.921875 " clip-rule="nonzero"/></clipPath><clipPath id="a6b6b96b2f"><rect x="0" width="46" y="0" height="228"/></clipPath><clipPath id="375faa7b33"><path d="M 46.035156 69.921875 L 319.777344 69.921875 L 319.777344 156 L 46.035156 156 Z M 46.035156 69.921875 " clip-rule="nonzero"/></clipPath><clipPath id="4e0deaa090"><path d="M 233.171875 142.652344 L 311.707031 98.3125 C 317.714844 94.921875 320.679688 87.910156 318.925781 81.238281 C 317.171875 74.570312 311.144531 69.921875 304.246094 69.921875 L 61.519531 69.921875 C 54.625 69.921875 48.59375 74.570312 46.839844 81.238281 C 45.089844 87.910156 48.054688 94.921875 54.058594 98.3125 L 132.59375 142.652344 C 163.804688 160.269531 201.960938 160.269531 233.171875 142.652344 Z M 233.171875 142.652344 " clip-rule="nonzero"/></clipPath><clipPath id="d5a4aad86f"><path d="M 0.0351562 0.921875 L 273.777344 0.921875 L 273.777344 87 L 0.0351562 87 Z M 0.0351562 0.921875 " clip-rule="nonzero"/></clipPath><clipPath id="ade45c77c9"><path d="M 187.171875 73.652344 L 265.707031 29.3125 C 271.714844 25.921875 274.679688 18.910156 272.925781 12.238281 C 271.171875 5.570312 265.144531 0.921875 258.246094 0.921875 L 15.519531 0.921875 C 8.625 0.921875 2.59375 5.570312 0.839844 12.238281 C -0.910156 18.910156 2.054688 25.921875 8.058594 29.3125 L 86.59375 73.652344 C 117.804688 91.269531 155.960938 91.269531 187.171875 73.652344 Z M 187.171875 73.652344 " clip-rule="nonzero"/></clipPath><clipPath id="acf4589384"><rect x="0" width="274" y="0" height="87"/></clipPath><clipPath id="524881568b"><path d="M 77 108.175781 L 288.863281 108.175781 L 288.863281 169.078125 L 77 169.078125 Z M 77 108.175781 " clip-rule="nonzero"/></clipPath><clipPath id="36f34b6981"><path d="M 189.414062 167.355469 L 287.707031 111.863281 C 288.488281 111.421875 288.871094 110.511719 288.644531 109.644531 C 288.417969 108.777344 287.632812 108.175781 286.738281 108.175781 L 79.027344 108.175781 C 78.132812 108.175781 77.347656 108.777344 77.121094 109.644531 C 76.894531 110.511719 77.277344 111.421875 78.058594 111.863281 L 176.351562 167.355469 C 180.40625 169.644531 185.359375 169.644531 189.414062 167.355469 Z M 189.414062 167.355469 " clip-rule="nonzero"/></clipPath><clipPath id="591d7ac43b"><path d="M 0 0.175781 L 211.863281 0.175781 L 211.863281 61.078125 L 0 61.078125 Z M 0 0.175781 " clip-rule="nonzero"/></clipPath><clipPath id="2df9ef2e41"><path d="M 112.414062 59.355469 L 210.707031 3.863281 C 211.488281 3.421875 211.871094 2.511719 211.644531 1.644531 C 211.417969 0.777344 210.632812 0.175781 209.738281 0.175781 L 2.027344 0.175781 C 1.132812 0.175781 0.347656 0.777344 0.121094 1.644531 C -0.105469 2.511719 0.277344 3.421875 1.058594 3.863281 L 99.351562 59.355469 C 103.40625 61.644531 108.359375 61.644531 112.414062 59.355469 Z M 112.414062 59.355469 " clip-rule="nonzero"/></clipPath><clipPath id="c0fded9dd3"><rect x="0" width="212" y="0" height="62"/></clipPath></defs><g clip-path="url(#1660a9c9b9)"><g transform="matrix(1, 0, 0, 1, 45, 210)"><g clip-path="url(#a07d172fe1)"><g clip-path="url(#ec57bedd89)"><path fill="#ffffff" d="M 0.238281 0.402344 L 276.089844 0.402344 L 276.089844 63.792969 L 0.238281 63.792969 Z M 0.238281 0.402344 " fill-opacity="1" fill-rule="nonzero"/></g></g></g></g><g clip-path="url(#f47ae6cbb2)"><g clip-path="url(#0f346a8420)"><g transform="matrix(1, 0, 0, 1, 45, 227)"><g clip-path="url(#1f7c586393)"><g clip-path="url(#9ced9a27f2)"><g clip-path="url(#c7f2c790fe)"><path fill="#ffffff" d="M 0.238281 0.855469 L 275.957031 0.855469 L 275.957031 78.078125 L 0.238281 78.078125 Z M 0.238281 0.855469 " fill-opacity="1" fill-rule="nonzero"/></g></g></g></g></g></g><g clip-path="url(#351675fcde)"><g clip-path="url(#f8e8525717)"><g transform="matrix(1, 0, 0, 1, 175, 121)"><g clip-path="url(#54ff70037b)"><g clip-path="url(#8ba2af04cc)"><g clip-path="url(#71292a6608)"><path fill="#ffffff" d="M 0.960938 0.0585938 L 318.027344 0.0585938 L 318.027344 91.464844 L 0.960938 91.464844 Z M 0.960938 0.0585938 " fill-opacity="1" fill-rule="nonzero"/></g></g></g></g></g></g><g clip-path="url(#21f3c06488)"><g transform="matrix(1, 0, 0, 1, 321, 77)"><g clip-path="url(#1162f00277)"><g clip-path="url(#c9112e9695)"><path fill="#ff0000" d="M 0.00390625 0.855469 L 148.796875 0.855469 L 148.796875 219.976562 L 0.00390625 219.976562 Z M 0.00390625 0.855469 " fill-opacity="1" fill-rule="nonzero"/></g></g></g></g><g clip-path="url(#1badf4232a)"><g clip-path="url(#661df7a36b)"><g transform="matrix(1, 0, 0, 1, 0, 123)"><g clip-path="url(#1f55fbc7c8)"><g clip-path="url(#299c194f84)"><g clip-path="url(#c30752e6b1)"><path fill="#ffffff" d="M -118.078125 0.585938 L 190.230469 0.585938 L 190.230469 89.464844 L -118.078125 89.464844 Z M -118.078125 0.585938 " fill-opacity="1" fill-rule="nonzero"/></g></g></g></g></g></g><g clip-path="url(#b1fc481fc4)"><g transform="matrix(1, 0, 0, 1, 0, 69)"><g clip-path="url(#a6b6b96b2f)"><g clip-path="url(#1f99902f83)"><path fill="#ff0000" d="M -103.558594 0.921875 L 45.238281 0.921875 L 45.238281 227.601562 L -103.558594 227.601562 Z M -103.558594 0.921875 " fill-opacity="1" fill-rule="nonzero"/></g></g></g></g><g clip-path="url(#375faa7b33)"><g clip-path="url(#4e0deaa090)"><g transform="matrix(1, 0, 0, 1, 46, 69)"><g clip-path="url(#acf4589384)"><g clip-path="url(#d5a4aad86f)"><g clip-path="url(#ade45c77c9)"><path fill="#ffffff" d="M -42.230469 0.921875 L 316.042969 0.921875 L 316.042969 102.042969 L -42.230469 102.042969 Z M -42.230469 0.921875 " fill-opacity="1" fill-rule="nonzero"/></g></g></g></g></g></g><g clip-path="url(#524881568b)"><g clip-path="url(#36f34b6981)"><g transform="matrix(1, 0, 0, 1, 77, 108)"><g clip-path="url(#c0fded9dd3)"><g clip-path="url(#591d7ac43b)"><g clip-path="url(#2df9ef2e41)"><path fill="#ffffff" d="M -5.472656 0.175781 L 217.265625 0.175781 L 217.265625 63.042969 L -5.472656 63.042969 Z M -5.472656 0.175781 " fill-opacity="1" fill-rule="nonzero"/></g></g></g></g></g></g></svg>