<svg xmlns="http://www.w3.org/2000/svg" xmlns:xlink="http://www.w3.org/1999/xlink" width="500" zoomAndPan="magnify" viewBox="0 0 375 374.999991" height="500" preserveAspectRatio="xMidYMid meet" version="1.0"><path fill="#ffffff" d="M 92.238281 321.664062 C 81.441406 321.664062 72.257812 317.882812 64.6875 310.3125 C 57.117188 302.742188 53.335938 293.558594 53.335938 282.761719 L 53.335938 92.238281 C 53.335938 81.441406 57.117188 72.257812 64.6875 64.6875 C 72.257812 57.117188 81.441406 53.335938 92.238281 53.335938 L 282.761719 53.335938 C 293.558594 53.335938 302.742188 57.117188 310.3125 64.6875 C 317.882812 72.257812 321.664062 81.441406 321.664062 92.238281 L 321.664062 282.761719 C 321.664062 293.558594 317.882812 302.742188 310.3125 310.3125 C 302.742188 317.882812 293.558594 321.664062 282.761719 321.664062 Z M 92.238281 282.761719 L 282.761719 282.761719 L 282.761719 92.238281 L 92.238281 92.238281 Z M 92.238281 282.761719 L 92.238281 92.238281 Z M 117.605469 261.914062 L 257.394531 261.914062 C 261.507812 261.914062 264.421875 260.144531 266.136719 256.601562 C 267.851562 253.058594 267.507812 249.691406 265.105469 246.492188 L 226.757812 194.488281 C 224.8125 191.859375 222.242188 190.570312 219.042969 190.632812 C 215.84375 190.691406 213.246094 192.0625 211.25 194.75 L 177.1875 240.25 L 153.4375 208.761719 C 151.441406 206.074219 148.84375 204.746094 145.644531 204.773438 C 142.445312 204.800781 139.875 206.15625 137.929688 208.84375 L 109.894531 246.492188 C 107.492188 249.691406 107.148438 253.058594 108.863281 256.601562 C 110.578125 260.144531 113.492188 261.914062 117.605469 261.914062 Z M 117.605469 261.914062 " fill-opacity="1" fill-rule="nonzero"/></svg>