<svg xmlns="http://www.w3.org/2000/svg" xmlns:xlink="http://www.w3.org/1999/xlink" width="500" zoomAndPan="magnify" viewBox="0 0 375 374.999991" height="500" preserveAspectRatio="xMidYMid meet" version="1.0"><path fill="#ffffff" d="M 79.246094 339.960938 C 66.976562 339.960938 56.542969 335.660156 47.941406 327.058594 C 39.339844 318.457031 35.039062 308.023438 35.039062 295.753906 L 35.039062 79.246094 C 35.039062 66.976562 39.339844 56.542969 47.941406 47.941406 C 56.542969 39.339844 66.976562 35.039062 79.246094 35.039062 L 295.753906 35.039062 C 308.023438 35.039062 318.457031 39.339844 327.058594 47.941406 C 335.660156 56.542969 339.960938 66.976562 339.960938 79.246094 L 339.960938 295.753906 C 339.960938 308.023438 335.660156 318.457031 327.058594 327.058594 C 318.457031 335.660156 308.023438 339.960938 295.753906 339.960938 Z M 79.246094 295.753906 L 295.753906 295.753906 L 295.753906 79.246094 L 79.246094 79.246094 Z M 79.246094 295.753906 L 79.246094 79.246094 Z M 108.074219 272.0625 L 266.925781 272.0625 C 271.601562 272.0625 274.910156 270.050781 276.859375 266.023438 C 278.808594 262 278.417969 258.171875 275.6875 254.535156 L 232.109375 195.441406 C 229.902344 192.453125 226.980469 190.992188 223.34375 191.058594 C 219.707031 191.125 216.757812 192.6875 214.488281 195.738281 L 175.78125 247.445312 L 148.792969 211.660156 C 146.523438 208.609375 143.574219 207.097656 139.9375 207.128906 C 136.300781 207.160156 133.378906 208.703125 131.171875 211.753906 L 99.3125 254.535156 C 96.582031 258.171875 96.191406 262 98.140625 266.023438 C 100.089844 270.050781 103.398438 272.0625 108.074219 272.0625 Z M 108.074219 272.0625 " fill-opacity="1" fill-rule="nonzero"/></svg>