<svg xmlns="http://www.w3.org/2000/svg" xmlns:xlink="http://www.w3.org/1999/xlink" width="500" zoomAndPan="magnify" viewBox="0 0 375 374.999991" height="500" preserveAspectRatio="xMidYMid meet" version="1.0"><defs><clipPath id="26cba48bce"><path d="M 37.5 37.5 L 337.5 37.5 L 337.5 337.5 L 37.5 337.5 Z M 37.5 37.5 " clip-rule="nonzero"/></clipPath><clipPath id="69deb57161"><path d="M 104.070312 104.070312 L 234.800781 104.070312 L 234.800781 234.800781 L 104.070312 234.800781 Z M 104.070312 104.070312 " clip-rule="nonzero"/></clipPath><clipPath id="8414e16382"><path d="M 169.433594 104.070312 C 133.335938 104.070312 104.070312 133.335938 104.070312 169.433594 C 104.070312 205.535156 133.335938 234.800781 169.433594 234.800781 C 205.535156 234.800781 234.800781 205.535156 234.800781 169.433594 C 234.800781 133.335938 205.535156 104.070312 169.433594 104.070312 Z M 169.433594 104.070312 " clip-rule="nonzero"/></clipPath><clipPath id="a048071917"><path d="M 0.0703125 0.0703125 L 130.800781 0.0703125 L 130.800781 130.800781 L 0.0703125 130.800781 Z M 0.0703125 0.0703125 " clip-rule="nonzero"/></clipPath><clipPath id="66506cd015"><path d="M 65.433594 0.0703125 C 29.335938 0.0703125 0.0703125 29.335938 0.0703125 65.433594 C 0.0703125 101.535156 29.335938 130.800781 65.433594 130.800781 C 101.535156 130.800781 130.800781 101.535156 130.800781 65.433594 C 130.800781 29.335938 101.535156 0.0703125 65.433594 0.0703125 Z M 65.433594 0.0703125 " clip-rule="nonzero"/></clipPath><clipPath id="ba0092113f"><rect x="0" width="131" y="0" height="131"/></clipPath></defs><g clip-path="url(#26cba48bce)"><path fill="#fefefe" d="M 332.011719 305.566406 L 273.949219 247.476562 C 317.394531 189.417969 305.546875 107.128906 247.488281 63.683594 C 189.429688 20.234375 107.140625 32.082031 63.695312 90.140625 C 20.25 148.203125 32.09375 230.488281 90.15625 273.9375 C 136.792969 308.835938 200.851562 308.835938 247.488281 273.9375 L 305.578125 332.023438 C 312.878906 339.324219 324.710938 339.324219 332.011719 332.023438 C 339.3125 324.726562 339.3125 312.890625 332.011719 305.589844 Z M 169.304688 262.722656 C 117.707031 262.722656 75.875 220.894531 75.875 169.292969 C 75.875 117.691406 117.707031 75.863281 169.304688 75.863281 C 220.90625 75.863281 262.738281 117.691406 262.738281 169.292969 C 262.683594 220.871094 220.882812 262.667969 169.304688 262.722656 Z M 169.304688 262.722656 " fill-opacity="1" fill-rule="nonzero"/></g><g clip-path="url(#69deb57161)"><g clip-path="url(#8414e16382)"><g transform="matrix(1, 0, 0, 1, 104, 104)"><g clip-path="url(#ba0092113f)"><g clip-path="url(#a048071917)"><g clip-path="url(#66506cd015)"><path fill="#fefefe" d="M 0.0703125 0.0703125 L 130.800781 0.0703125 L 130.800781 130.800781 L 0.0703125 130.800781 Z M 0.0703125 0.0703125 " fill-opacity="1" fill-rule="nonzero"/></g></g></g></g></g></g></svg>