<svg xmlns="http://www.w3.org/2000/svg" xmlns:xlink="http://www.w3.org/1999/xlink" width="500" zoomAndPan="magnify" viewBox="0 0 375 374.999991" height="500" preserveAspectRatio="xMidYMid meet" version="1.0"><defs><clipPath id="079e528954"><path d="M 201 201 L 314 201 L 314 314 L 201 314 Z M 201 201 " clip-rule="nonzero"/></clipPath><clipPath id="78d59ab4b5"><path d="M 191.125 226.753906 L 226.753906 191.125 L 324.449219 288.820312 L 288.824219 324.449219 Z M 191.125 226.753906 " clip-rule="nonzero"/></clipPath><clipPath id="20bb4ef7d6"><path d="M 208.941406 208.9375 C 218.777344 199.101562 234.730469 199.101562 244.566406 208.9375 L 306.574219 270.945312 C 316.414062 280.785156 316.414062 296.734375 306.574219 306.574219 C 296.738281 316.410156 280.785156 316.410156 270.949219 306.574219 L 208.941406 244.566406 C 199.101562 234.726562 199.101562 218.777344 208.941406 208.9375 Z M 208.941406 208.9375 " clip-rule="nonzero"/></clipPath><clipPath id="650b30091b"><path d="M 0 0 L 113 0 L 113 113 L 0 113 Z M 0 0 " clip-rule="nonzero"/></clipPath><clipPath id="2fb61b8d84"><path d="M -9.875 25.753906 L 25.753906 -9.875 L 123.449219 87.820312 L 87.824219 123.449219 Z M -9.875 25.753906 " clip-rule="nonzero"/></clipPath><clipPath id="63c0e04307"><path d="M 7.941406 7.9375 C 17.777344 -1.898438 33.730469 -1.898438 43.566406 7.9375 L 105.574219 69.945312 C 115.414062 79.785156 115.414062 95.734375 105.574219 105.574219 C 95.738281 115.410156 79.785156 115.410156 69.949219 105.574219 L 7.941406 43.566406 C -1.898438 33.726562 -1.898438 17.777344 7.941406 7.9375 Z M 7.941406 7.9375 " clip-rule="nonzero"/></clipPath><clipPath id="e45c1ce4dd"><rect x="0" width="113" y="0" height="113"/></clipPath><clipPath id="65a0ebfc13"><rect x="0" width="325" y="0" height="325"/></clipPath></defs><g transform="matrix(1, 0, 0, 1, 25, 25)"><g clip-path="url(#65a0ebfc13)"><g clip-path="url(#079e528954)"><g clip-path="url(#78d59ab4b5)"><g clip-path="url(#20bb4ef7d6)"><g transform="matrix(1, 0, 0, 1, 201, 201)"><g clip-path="url(#e45c1ce4dd)"><g clip-path="url(#650b30091b)"><g clip-path="url(#2fb61b8d84)"><g clip-path="url(#63c0e04307)"><path fill="#ffffff" d="M -9.875 25.753906 L 25.753906 -9.875 L 123.449219 87.820312 L 87.824219 123.449219 Z M -9.875 25.753906 " fill-opacity="1" fill-rule="nonzero"/></g></g></g></g></g></g></g></g><path fill="#ffffff" d="M 142.753906 264.953125 C 125.832031 264.953125 109.898438 261.792969 94.953125 255.472656 C 80.007812 249.152344 67.03125 240.488281 56.027344 229.480469 C 45.023438 218.476562 36.359375 205.503906 30.035156 190.558594 C 23.714844 175.609375 20.554688 159.675781 20.554688 142.753906 C 20.554688 125.785156 23.722656 109.851562 30.054688 94.957031 C 36.386719 80.0625 45.078125 67.097656 56.132812 56.066406 C 67.183594 45.039062 80.160156 36.359375 95.054688 30.039062 C 109.957031 23.71875 125.855469 20.554688 142.753906 20.554688 C 159.722656 20.554688 175.65625 23.714844 190.558594 30.035156 C 205.460938 36.355469 218.425781 45.027344 229.453125 56.054688 C 240.480469 67.082031 249.15625 80.050781 255.476562 94.957031 C 261.792969 109.867188 264.953125 125.804688 264.953125 142.777344 C 264.953125 159.75 261.792969 175.664062 255.46875 190.519531 C 249.148438 205.371094 240.472656 218.324219 229.441406 229.378906 C 218.410156 240.429688 205.445312 249.125 190.550781 255.457031 C 175.65625 261.785156 159.722656 264.953125 142.753906 264.953125 Z M 142.691406 227.691406 C 166.570312 227.691406 186.710938 219.515625 203.101562 203.164062 C 219.496094 186.8125 227.691406 166.699219 227.691406 142.816406 C 227.691406 118.9375 219.515625 98.800781 203.164062 82.40625 C 186.8125 66.015625 166.699219 57.820312 142.816406 57.820312 C 118.9375 57.820312 98.800781 65.992188 82.40625 82.34375 C 66.015625 98.695312 57.820312 118.8125 57.820312 142.691406 C 57.820312 166.570312 65.992188 186.710938 82.34375 203.101562 C 98.695312 219.496094 118.8125 227.691406 142.691406 227.691406 Z M 142.691406 227.691406 " fill-opacity="1" fill-rule="nonzero"/><path fill="#ffffff" d="M 142.914062 275.132812 C 124.601562 275.132812 107.363281 271.714844 91.1875 264.875 C 75.019531 258.035156 60.980469 248.660156 49.070312 236.753906 C 37.164062 224.84375 27.789062 210.804688 20.949219 194.636719 C 14.109375 178.460938 10.691406 161.222656 10.691406 142.914062 C 10.691406 124.550781 14.117188 107.3125 20.96875 91.195312 C 27.820312 75.078125 37.226562 61.050781 49.183594 49.117188 C 61.144531 37.179688 75.183594 27.792969 91.300781 20.953125 C 107.421875 14.113281 124.625 10.691406 142.914062 10.691406 C 161.269531 10.691406 178.511719 14.109375 194.636719 20.945312 C 210.761719 27.785156 224.792969 37.167969 236.722656 49.101562 C 248.65625 61.03125 258.039062 75.0625 264.878906 91.195312 C 271.714844 107.328125 275.132812 124.574219 275.132812 142.9375 C 275.132812 161.300781 271.710938 178.519531 264.871094 194.59375 C 258.03125 210.664062 248.644531 224.679688 236.707031 236.640625 C 224.773438 248.601562 210.746094 258.003906 194.628906 264.855469 C 178.511719 271.707031 161.273438 275.132812 142.914062 275.132812 Z M 142.84375 234.8125 C 168.683594 234.8125 190.472656 225.96875 208.210938 208.277344 C 225.945312 190.585938 234.8125 168.820312 234.8125 142.980469 C 234.8125 117.140625 225.96875 95.351562 208.277344 77.613281 C 190.585938 59.878906 168.820312 51.011719 142.980469 51.011719 C 117.140625 51.011719 95.351562 59.855469 77.613281 77.546875 C 59.878906 95.238281 51.011719 117.003906 51.011719 142.84375 C 51.011719 168.683594 59.855469 190.472656 77.546875 208.210938 C 95.238281 225.945312 117.003906 234.8125 142.84375 234.8125 Z M 142.914062 142.914062 Z M 142.914062 142.914062 " fill-opacity="1" fill-rule="nonzero"/></g></g></svg>